<mxfile host="app.diagrams.net" modified="2024-01-07T07:14:51.060Z" agent="Mozilla/5.0 (Windows NT 10.0; Win64; x64) AppleWebKit/537.36 (KHTML, like Gecko) Chrome/120.0.0.0 Safari/537.36" etag="vhGVL2b6om9R64wYkZgI" version="22.1.17" type="device">
  <diagram id="C5RBs43oDa-KdzZeNtuy" name="Page-1">
    <mxGraphModel dx="2100" dy="1114" grid="1" gridSize="10" guides="1" tooltips="1" connect="1" arrows="1" fold="1" page="1" pageScale="1" pageWidth="827" pageHeight="1169" math="0" shadow="0">
      <root>
        <mxCell id="WIyWlLk6GJQsqaUBKTNV-0" />
        <mxCell id="WIyWlLk6GJQsqaUBKTNV-1" parent="WIyWlLk6GJQsqaUBKTNV-0" />
        <mxCell id="URfr1vmPutw7XCnbJy9G-2" value="" style="edgeStyle=orthogonalEdgeStyle;rounded=0;orthogonalLoop=1;jettySize=auto;html=1;" edge="1" parent="WIyWlLk6GJQsqaUBKTNV-1" source="URfr1vmPutw7XCnbJy9G-0" target="URfr1vmPutw7XCnbJy9G-1">
          <mxGeometry relative="1" as="geometry" />
        </mxCell>
        <mxCell id="URfr1vmPutw7XCnbJy9G-0" value="Start" style="ellipse;whiteSpace=wrap;html=1;" vertex="1" parent="WIyWlLk6GJQsqaUBKTNV-1">
          <mxGeometry x="370" y="10" width="120" height="80" as="geometry" />
        </mxCell>
        <mxCell id="URfr1vmPutw7XCnbJy9G-4" value="" style="edgeStyle=orthogonalEdgeStyle;rounded=0;orthogonalLoop=1;jettySize=auto;html=1;" edge="1" parent="WIyWlLk6GJQsqaUBKTNV-1" source="URfr1vmPutw7XCnbJy9G-1" target="URfr1vmPutw7XCnbJy9G-3">
          <mxGeometry relative="1" as="geometry" />
        </mxCell>
        <mxCell id="URfr1vmPutw7XCnbJy9G-1" value="Registration" style="shape=parallelogram;perimeter=parallelogramPerimeter;whiteSpace=wrap;html=1;fixedSize=1;" vertex="1" parent="WIyWlLk6GJQsqaUBKTNV-1">
          <mxGeometry x="370" y="130" width="120" height="60" as="geometry" />
        </mxCell>
        <mxCell id="URfr1vmPutw7XCnbJy9G-5" style="edgeStyle=orthogonalEdgeStyle;rounded=0;orthogonalLoop=1;jettySize=auto;html=1;entryX=1;entryY=0.5;entryDx=0;entryDy=0;" edge="1" parent="WIyWlLk6GJQsqaUBKTNV-1" source="URfr1vmPutw7XCnbJy9G-3" target="URfr1vmPutw7XCnbJy9G-1">
          <mxGeometry relative="1" as="geometry">
            <mxPoint x="530" y="270" as="targetPoint" />
            <Array as="points">
              <mxPoint x="500" y="270" />
              <mxPoint x="500" y="160" />
            </Array>
          </mxGeometry>
        </mxCell>
        <mxCell id="URfr1vmPutw7XCnbJy9G-6" value="No" style="edgeLabel;html=1;align=center;verticalAlign=middle;resizable=0;points=[];" vertex="1" connectable="0" parent="URfr1vmPutw7XCnbJy9G-5">
          <mxGeometry x="0.0973" y="2" relative="1" as="geometry">
            <mxPoint as="offset" />
          </mxGeometry>
        </mxCell>
        <mxCell id="URfr1vmPutw7XCnbJy9G-8" value="" style="edgeStyle=orthogonalEdgeStyle;rounded=0;orthogonalLoop=1;jettySize=auto;html=1;" edge="1" parent="WIyWlLk6GJQsqaUBKTNV-1" source="URfr1vmPutw7XCnbJy9G-3" target="URfr1vmPutw7XCnbJy9G-7">
          <mxGeometry relative="1" as="geometry" />
        </mxCell>
        <mxCell id="URfr1vmPutw7XCnbJy9G-15" value="Yes" style="edgeLabel;html=1;align=center;verticalAlign=middle;resizable=0;points=[];" vertex="1" connectable="0" parent="URfr1vmPutw7XCnbJy9G-8">
          <mxGeometry x="-0.1206" relative="1" as="geometry">
            <mxPoint as="offset" />
          </mxGeometry>
        </mxCell>
        <mxCell id="URfr1vmPutw7XCnbJy9G-3" value="is_valid" style="rhombus;whiteSpace=wrap;html=1;" vertex="1" parent="WIyWlLk6GJQsqaUBKTNV-1">
          <mxGeometry x="390" y="230" width="80" height="80" as="geometry" />
        </mxCell>
        <mxCell id="URfr1vmPutw7XCnbJy9G-10" value="" style="edgeStyle=orthogonalEdgeStyle;rounded=0;orthogonalLoop=1;jettySize=auto;html=1;" edge="1" parent="WIyWlLk6GJQsqaUBKTNV-1" source="URfr1vmPutw7XCnbJy9G-7" target="URfr1vmPutw7XCnbJy9G-9">
          <mxGeometry relative="1" as="geometry" />
        </mxCell>
        <mxCell id="URfr1vmPutw7XCnbJy9G-7" value="Send Email Notification" style="whiteSpace=wrap;html=1;" vertex="1" parent="WIyWlLk6GJQsqaUBKTNV-1">
          <mxGeometry x="370" y="350" width="120" height="60" as="geometry" />
        </mxCell>
        <mxCell id="URfr1vmPutw7XCnbJy9G-13" style="edgeStyle=orthogonalEdgeStyle;rounded=0;orthogonalLoop=1;jettySize=auto;html=1;entryX=1;entryY=0.5;entryDx=0;entryDy=0;" edge="1" parent="WIyWlLk6GJQsqaUBKTNV-1" source="URfr1vmPutw7XCnbJy9G-9" target="URfr1vmPutw7XCnbJy9G-7">
          <mxGeometry relative="1" as="geometry">
            <Array as="points">
              <mxPoint x="510" y="520" />
              <mxPoint x="510" y="380" />
            </Array>
          </mxGeometry>
        </mxCell>
        <mxCell id="URfr1vmPutw7XCnbJy9G-14" value="No" style="edgeLabel;html=1;align=center;verticalAlign=middle;resizable=0;points=[];" vertex="1" connectable="0" parent="URfr1vmPutw7XCnbJy9G-13">
          <mxGeometry x="0.1249" y="-3" relative="1" as="geometry">
            <mxPoint as="offset" />
          </mxGeometry>
        </mxCell>
        <mxCell id="URfr1vmPutw7XCnbJy9G-17" value="" style="edgeStyle=orthogonalEdgeStyle;rounded=0;orthogonalLoop=1;jettySize=auto;html=1;" edge="1" parent="WIyWlLk6GJQsqaUBKTNV-1" source="URfr1vmPutw7XCnbJy9G-9" target="URfr1vmPutw7XCnbJy9G-16">
          <mxGeometry relative="1" as="geometry" />
        </mxCell>
        <mxCell id="URfr1vmPutw7XCnbJy9G-18" value="Yes" style="edgeLabel;html=1;align=center;verticalAlign=middle;resizable=0;points=[];" vertex="1" connectable="0" parent="URfr1vmPutw7XCnbJy9G-17">
          <mxGeometry x="-0.0376" y="5" relative="1" as="geometry">
            <mxPoint y="1" as="offset" />
          </mxGeometry>
        </mxCell>
        <mxCell id="URfr1vmPutw7XCnbJy9G-9" value="registration approved" style="rhombus;whiteSpace=wrap;html=1;" vertex="1" parent="WIyWlLk6GJQsqaUBKTNV-1">
          <mxGeometry x="385" y="460" width="90" height="100" as="geometry" />
        </mxCell>
        <mxCell id="URfr1vmPutw7XCnbJy9G-24" value="" style="edgeStyle=orthogonalEdgeStyle;rounded=0;orthogonalLoop=1;jettySize=auto;html=1;" edge="1" parent="WIyWlLk6GJQsqaUBKTNV-1" source="URfr1vmPutw7XCnbJy9G-16" target="URfr1vmPutw7XCnbJy9G-23">
          <mxGeometry relative="1" as="geometry" />
        </mxCell>
        <mxCell id="URfr1vmPutw7XCnbJy9G-16" value="Input data Vendor" style="shape=parallelogram;perimeter=parallelogramPerimeter;whiteSpace=wrap;html=1;fixedSize=1;" vertex="1" parent="WIyWlLk6GJQsqaUBKTNV-1">
          <mxGeometry x="365" y="610" width="130" height="60" as="geometry" />
        </mxCell>
        <mxCell id="URfr1vmPutw7XCnbJy9G-26" value="" style="edgeStyle=orthogonalEdgeStyle;rounded=0;orthogonalLoop=1;jettySize=auto;html=1;" edge="1" parent="WIyWlLk6GJQsqaUBKTNV-1" source="URfr1vmPutw7XCnbJy9G-23" target="URfr1vmPutw7XCnbJy9G-25">
          <mxGeometry relative="1" as="geometry" />
        </mxCell>
        <mxCell id="URfr1vmPutw7XCnbJy9G-23" value="Login" style="whiteSpace=wrap;html=1;" vertex="1" parent="WIyWlLk6GJQsqaUBKTNV-1">
          <mxGeometry x="370" y="710" width="120" height="60" as="geometry" />
        </mxCell>
        <mxCell id="URfr1vmPutw7XCnbJy9G-30" value="" style="edgeStyle=orthogonalEdgeStyle;rounded=0;orthogonalLoop=1;jettySize=auto;html=1;" edge="1" parent="WIyWlLk6GJQsqaUBKTNV-1" source="URfr1vmPutw7XCnbJy9G-25" target="URfr1vmPutw7XCnbJy9G-29">
          <mxGeometry relative="1" as="geometry" />
        </mxCell>
        <mxCell id="URfr1vmPutw7XCnbJy9G-25" value="Display Availabe Project" style="shape=parallelogram;perimeter=parallelogramPerimeter;whiteSpace=wrap;html=1;fixedSize=1;" vertex="1" parent="WIyWlLk6GJQsqaUBKTNV-1">
          <mxGeometry x="370" y="820" width="120" height="60" as="geometry" />
        </mxCell>
        <mxCell id="URfr1vmPutw7XCnbJy9G-32" value="" style="edgeStyle=orthogonalEdgeStyle;rounded=0;orthogonalLoop=1;jettySize=auto;html=1;" edge="1" parent="WIyWlLk6GJQsqaUBKTNV-1" source="URfr1vmPutw7XCnbJy9G-29" target="URfr1vmPutw7XCnbJy9G-31">
          <mxGeometry relative="1" as="geometry" />
        </mxCell>
        <mxCell id="URfr1vmPutw7XCnbJy9G-29" value="Request tender" style="shape=parallelogram;perimeter=parallelogramPerimeter;whiteSpace=wrap;html=1;fixedSize=1;" vertex="1" parent="WIyWlLk6GJQsqaUBKTNV-1">
          <mxGeometry x="370" y="930" width="120" height="60" as="geometry" />
        </mxCell>
        <mxCell id="URfr1vmPutw7XCnbJy9G-34" value="" style="edgeStyle=orthogonalEdgeStyle;rounded=0;orthogonalLoop=1;jettySize=auto;html=1;" edge="1" parent="WIyWlLk6GJQsqaUBKTNV-1" source="URfr1vmPutw7XCnbJy9G-31" target="URfr1vmPutw7XCnbJy9G-33">
          <mxGeometry relative="1" as="geometry" />
        </mxCell>
        <mxCell id="URfr1vmPutw7XCnbJy9G-31" value="Notification Approval Manager" style="whiteSpace=wrap;html=1;" vertex="1" parent="WIyWlLk6GJQsqaUBKTNV-1">
          <mxGeometry x="370" y="1070" width="120" height="60" as="geometry" />
        </mxCell>
        <mxCell id="URfr1vmPutw7XCnbJy9G-38" value="" style="edgeStyle=orthogonalEdgeStyle;rounded=0;orthogonalLoop=1;jettySize=auto;html=1;" edge="1" parent="WIyWlLk6GJQsqaUBKTNV-1" source="URfr1vmPutw7XCnbJy9G-33" target="URfr1vmPutw7XCnbJy9G-37">
          <mxGeometry relative="1" as="geometry" />
        </mxCell>
        <mxCell id="URfr1vmPutw7XCnbJy9G-40" value="No" style="edgeLabel;html=1;align=center;verticalAlign=middle;resizable=0;points=[];" vertex="1" connectable="0" parent="URfr1vmPutw7XCnbJy9G-38">
          <mxGeometry x="0.5266" y="3" relative="1" as="geometry">
            <mxPoint as="offset" />
          </mxGeometry>
        </mxCell>
        <mxCell id="URfr1vmPutw7XCnbJy9G-42" value="" style="edgeStyle=orthogonalEdgeStyle;rounded=0;orthogonalLoop=1;jettySize=auto;html=1;" edge="1" parent="WIyWlLk6GJQsqaUBKTNV-1" source="URfr1vmPutw7XCnbJy9G-33" target="URfr1vmPutw7XCnbJy9G-41">
          <mxGeometry relative="1" as="geometry" />
        </mxCell>
        <mxCell id="URfr1vmPutw7XCnbJy9G-43" value="Yes" style="edgeLabel;html=1;align=center;verticalAlign=middle;resizable=0;points=[];" vertex="1" connectable="0" parent="URfr1vmPutw7XCnbJy9G-42">
          <mxGeometry x="-0.0912" y="1" relative="1" as="geometry">
            <mxPoint y="1" as="offset" />
          </mxGeometry>
        </mxCell>
        <mxCell id="URfr1vmPutw7XCnbJy9G-33" value="is_Approve" style="rhombus;whiteSpace=wrap;html=1;" vertex="1" parent="WIyWlLk6GJQsqaUBKTNV-1">
          <mxGeometry x="390" y="1200" width="80" height="80" as="geometry" />
        </mxCell>
        <mxCell id="URfr1vmPutw7XCnbJy9G-39" style="edgeStyle=orthogonalEdgeStyle;rounded=0;orthogonalLoop=1;jettySize=auto;html=1;entryX=1;entryY=0.5;entryDx=0;entryDy=0;" edge="1" parent="WIyWlLk6GJQsqaUBKTNV-1" source="URfr1vmPutw7XCnbJy9G-37" target="URfr1vmPutw7XCnbJy9G-25">
          <mxGeometry relative="1" as="geometry">
            <Array as="points">
              <mxPoint x="620" y="850" />
            </Array>
          </mxGeometry>
        </mxCell>
        <mxCell id="URfr1vmPutw7XCnbJy9G-37" value="Not Approve Notification" style="rounded=1;whiteSpace=wrap;html=1;" vertex="1" parent="WIyWlLk6GJQsqaUBKTNV-1">
          <mxGeometry x="560" y="980" width="120" height="60" as="geometry" />
        </mxCell>
        <mxCell id="URfr1vmPutw7XCnbJy9G-45" value="" style="edgeStyle=orthogonalEdgeStyle;rounded=0;orthogonalLoop=1;jettySize=auto;html=1;" edge="1" parent="WIyWlLk6GJQsqaUBKTNV-1" source="URfr1vmPutw7XCnbJy9G-41" target="URfr1vmPutw7XCnbJy9G-44">
          <mxGeometry relative="1" as="geometry" />
        </mxCell>
        <mxCell id="URfr1vmPutw7XCnbJy9G-41" value="Approve Notification" style="whiteSpace=wrap;html=1;" vertex="1" parent="WIyWlLk6GJQsqaUBKTNV-1">
          <mxGeometry x="370" y="1320" width="120" height="60" as="geometry" />
        </mxCell>
        <mxCell id="URfr1vmPutw7XCnbJy9G-44" value="End" style="ellipse;whiteSpace=wrap;html=1;" vertex="1" parent="WIyWlLk6GJQsqaUBKTNV-1">
          <mxGeometry x="365" y="1420" width="130" height="50" as="geometry" />
        </mxCell>
      </root>
    </mxGraphModel>
  </diagram>
</mxfile>
